{"accessors":[{"bufferView":0,"byteOffset":0,"componentType":5126,"count":14,"max":[5.180206806739546,0.8534266051517564,2.87158606306882],"min":[4.692175313830749,-0.8534266051517564,2.5872228450036784],"type":"VEC3"},{"bufferView":0,"byteOffset":168,"componentType":5126,"count":8,"max":[5.147851742655238,0.8480961862068961,3.465475290483516],"min":[4.692175313830749,0.0,2.87158606306882],"type":"VEC3"},{"bufferView":0,"byteOffset":264,"componentType":5126,"count":8,"max":[5.5738517358149128,0.9182786599034933,3.179114448687801],"min":[5.109423215022404,0.0,2.5872228450036784],"type":"VEC3"},{"bufferView":0,"byteOffset":360,"componentType":5126,"count":4,"max":[5.49768928510995,0.9182786599034933,3.465475290483516],"min":[4.692175313830749,0.7837337171612422,2.5872228450036784],"type":"VEC3"},{"bufferView":0,"byteOffset":408,"componentType":5126,"count":14,"max":[5.5738517358149128,0.9182786599034933,3.465475290483516],"min":[5.0775102583155748,-0.9182786599034933,3.179114448687801],"type":"VEC3"},{"bufferView":0,"byteOffset":576,"componentType":5126,"count":8,"max":[5.147851742655238,0.0,3.465475290483516],"min":[4.692175313830749,-0.8480961862068961,2.87158606306882],"type":"VEC3"},{"bufferView":0,"byteOffset":672,"componentType":5126,"count":8,"max":[5.5738517358149128,0.0,3.179114448687801],"min":[5.109423215022404,-0.9182786599034933,2.5872228450036784],"type":"VEC3"},{"bufferView":0,"byteOffset":768,"componentType":5126,"count":4,"max":[5.49768928510995,-0.7837337171612422,3.465475290483516],"min":[4.692175313830749,-0.9182786599034933,2.5872228450036784],"type":"VEC3"},{"bufferView":1,"byteOffset":0,"componentType":5126,"count":14,"type":"VEC3"},{"bufferView":1,"byteOffset":168,"componentType":5126,"count":8,"type":"VEC3"},{"bufferView":1,"byteOffset":264,"componentType":5126,"count":8,"type":"VEC3"},{"bufferView":1,"byteOffset":360,"componentType":5126,"count":4,"type":"VEC3"},{"bufferView":1,"byteOffset":408,"componentType":5126,"count":14,"type":"VEC3"},{"bufferView":1,"byteOffset":576,"componentType":5126,"count":8,"type":"VEC3"},{"bufferView":1,"byteOffset":672,"componentType":5126,"count":8,"type":"VEC3"},{"bufferView":1,"byteOffset":768,"componentType":5126,"count":4,"type":"VEC3"},{"bufferView":2,"byteOffset":0,"componentType":5123,"count":36,"type":"SCALAR"},{"bufferView":2,"byteOffset":72,"componentType":5123,"count":18,"type":"SCALAR"},{"bufferView":2,"byteOffset":108,"componentType":5123,"count":18,"type":"SCALAR"},{"bufferView":2,"byteOffset":144,"componentType":5123,"count":6,"type":"SCALAR"},{"bufferView":2,"byteOffset":156,"componentType":5123,"count":36,"type":"SCALAR"},{"bufferView":2,"byteOffset":228,"componentType":5123,"count":18,"type":"SCALAR"},{"bufferView":2,"byteOffset":264,"componentType":5123,"count":18,"type":"SCALAR"},{"bufferView":2,"byteOffset":300,"componentType":5123,"count":6,"type":"SCALAR"}],"asset":{"generator":"Open CASCADE Technology 7.7 [dev.opencascade.org]","version":"2.0"},"bufferViews":[{"buffer":0,"byteLength":816,"byteOffset":0,"byteStride":12,"target":34962},{"buffer":0,"byteLength":816,"byteOffset":816,"byteStride":12,"target":34962},{"buffer":0,"byteLength":312,"byteOffset":1632,"target":34963}],"buffers":[{"byteLength":1944,"uri":"BLKT_7.bin"}],"materials":[{"name":"mat_0","pbrMetallicRoughness":{"baseColorFactor":[0.5,0.5,0.5,1.0]},"doubleSided":true}],"meshes":[{"name":"blanket_6_part","primitives":[{"attributes":{"NORMAL":8,"POSITION":0},"indices":16,"material":0,"mode":4},{"attributes":{"NORMAL":9,"POSITION":1},"indices":17,"material":0,"mode":4},{"attributes":{"NORMAL":10,"POSITION":2},"indices":18,"material":0,"mode":4},{"attributes":{"NORMAL":11,"POSITION":3},"indices":19,"material":0,"mode":4},{"attributes":{"NORMAL":12,"POSITION":4},"indices":20,"material":0,"mode":4},{"attributes":{"NORMAL":13,"POSITION":5},"indices":21,"material":0,"mode":4},{"attributes":{"NORMAL":14,"POSITION":6},"indices":22,"material":0,"mode":4},{"attributes":{"NORMAL":15,"POSITION":7},"indices":23,"material":0,"mode":4}]}],"nodes":[{"children":[1],"rotation":[-0.7071067811865475,0.0,0.0,0.7071067811865475],"name":"eceec315-78df-11f0-b2fb-d8bbc10393c8"},{"children":[2],"name":"blanket_6"},{"mesh":0,"name":"blanket_6_part"}],"scene":0,"scenes":[{"nodes":[0]}]}