{"accessors":[{"bufferView":0,"byteOffset":0,"componentType":5126,"count":14,"max":[9.087482631145307,0.7258192607981535,-1.2350617357045746],"min":[8.608701567288146,-0.7258192607981535,-1.4556050065061626],"type":"VEC3"},{"bufferView":0,"byteOffset":168,"componentType":5126,"count":8,"max":[9.087482631145307,0.7258192607981535,-1.4556050065061626],"min":[8.729423399444235,0.0,-2.130614960242225],"type":"VEC3"},{"bufferView":0,"byteOffset":264,"componentType":5126,"count":8,"max":[8.636292183648778,0.6897825793129262,-1.2350617357045746],"min":[8.279717927743985,0.0,-1.9100930423021053],"type":"VEC3"},{"bufferView":0,"byteOffset":360,"componentType":5126,"count":4,"max":[9.058450583406748,0.7258192607981535,-1.2350617357045746],"min":[8.279717927743985,0.6634223690462795,-2.130614960242225],"type":"VEC3"},{"bufferView":0,"byteOffset":408,"componentType":5126,"count":14,"max":[8.757400925460328,0.6994555614825521,-1.9100930423021053],"min":[8.279717927743985,-0.6994555614825521,-2.130614960242225],"type":"VEC3"},{"bufferView":0,"byteOffset":576,"componentType":5126,"count":8,"max":[9.087482631145307,0.0,-1.4556050065061626],"min":[8.729423399444235,-0.7258192607981535,-2.130614960242225],"type":"VEC3"},{"bufferView":0,"byteOffset":672,"componentType":5126,"count":8,"max":[8.636292183648778,0.0,-1.2350617357045746],"min":[8.279717927743985,-0.6897825793129262,-1.9100930423021053],"type":"VEC3"},{"bufferView":0,"byteOffset":768,"componentType":5126,"count":4,"max":[9.058450583406748,-0.6634223690462795,-1.2350617357045746],"min":[8.279717927743985,-0.7258192607981535,-2.130614960242225],"type":"VEC3"},{"bufferView":1,"byteOffset":0,"componentType":5126,"count":14,"type":"VEC3"},{"bufferView":1,"byteOffset":168,"componentType":5126,"count":8,"type":"VEC3"},{"bufferView":1,"byteOffset":264,"componentType":5126,"count":8,"type":"VEC3"},{"bufferView":1,"byteOffset":360,"componentType":5126,"count":4,"type":"VEC3"},{"bufferView":1,"byteOffset":408,"componentType":5126,"count":14,"type":"VEC3"},{"bufferView":1,"byteOffset":576,"componentType":5126,"count":8,"type":"VEC3"},{"bufferView":1,"byteOffset":672,"componentType":5126,"count":8,"type":"VEC3"},{"bufferView":1,"byteOffset":768,"componentType":5126,"count":4,"type":"VEC3"},{"bufferView":2,"byteOffset":0,"componentType":5123,"count":36,"type":"SCALAR"},{"bufferView":2,"byteOffset":72,"componentType":5123,"count":18,"type":"SCALAR"},{"bufferView":2,"byteOffset":108,"componentType":5123,"count":18,"type":"SCALAR"},{"bufferView":2,"byteOffset":144,"componentType":5123,"count":6,"type":"SCALAR"},{"bufferView":2,"byteOffset":156,"componentType":5123,"count":36,"type":"SCALAR"},{"bufferView":2,"byteOffset":228,"componentType":5123,"count":18,"type":"SCALAR"},{"bufferView":2,"byteOffset":264,"componentType":5123,"count":18,"type":"SCALAR"},{"bufferView":2,"byteOffset":300,"componentType":5123,"count":6,"type":"SCALAR"}],"asset":{"generator":"Open CASCADE Technology 7.7 [dev.opencascade.org]","version":"2.0"},"bufferViews":[{"buffer":0,"byteLength":816,"byteOffset":0,"byteStride":12,"target":34962},{"buffer":0,"byteLength":816,"byteOffset":816,"byteStride":12,"target":34962},{"buffer":0,"byteLength":312,"byteOffset":1632,"target":34963}],"buffers":[{"byteLength":1944,"uri":"BLKT_16.bin"}],"materials":[{"name":"mat_0","pbrMetallicRoughness":{"baseColorFactor":[0.5,0.5,0.5,1.0]},"doubleSided":true}],"meshes":[{"name":"blanket_15_part","primitives":[{"attributes":{"NORMAL":8,"POSITION":0},"indices":16,"material":0,"mode":4},{"attributes":{"NORMAL":9,"POSITION":1},"indices":17,"material":0,"mode":4},{"attributes":{"NORMAL":10,"POSITION":2},"indices":18,"material":0,"mode":4},{"attributes":{"NORMAL":11,"POSITION":3},"indices":19,"material":0,"mode":4},{"attributes":{"NORMAL":12,"POSITION":4},"indices":20,"material":0,"mode":4},{"attributes":{"NORMAL":13,"POSITION":5},"indices":21,"material":0,"mode":4},{"attributes":{"NORMAL":14,"POSITION":6},"indices":22,"material":0,"mode":4},{"attributes":{"NORMAL":15,"POSITION":7},"indices":23,"material":0,"mode":4}]}],"nodes":[{"children":[1],"rotation":[-0.7071067811865475,0.0,0.0,0.7071067811865475],"name":"ecfb7fe4-78df-11f0-ad18-d8bbc10393c8"},{"children":[2],"name":"blanket_15"},{"mesh":0,"name":"blanket_15_part"}],"scene":0,"scenes":[{"nodes":[0]}]}