{"accessors":[{"bufferView":0,"byteOffset":0,"componentType":5126,"count":14,"max":[7.46350237597572,0.6255411816199038,3.483182645468067],"min":[7.126536141445518,-0.6255411816199038,3.088485344386545],"type":"VEC3"},{"bufferView":0,"byteOffset":168,"componentType":5126,"count":8,"max":[8.048859296247528,0.6746019095637794,3.483182645468067],"min":[7.437241823841201,0.0,3.0198368445872014],"type":"VEC3"},{"bufferView":0,"byteOffset":264,"componentType":5126,"count":8,"max":[7.737273236144336,0.64848683618474,3.088485344386545],"min":[7.126536141445518,0.0,2.6254138664373016],"type":"VEC3"},{"bufferView":0,"byteOffset":360,"componentType":5126,"count":4,"max":[8.020539148611093,0.6746019095637794,3.483182645468067],"min":[7.126536141445518,0.5994079450914416,2.6254138664373016],"type":"VEC3"},{"bufferView":0,"byteOffset":408,"componentType":5126,"count":14,"max":[8.048859296247528,0.6746019095637794,3.0198368445872014],"min":[7.710049413204208,-0.6746019095637794,2.6254138664373016],"type":"VEC3"},{"bufferView":0,"byteOffset":576,"componentType":5126,"count":8,"max":[8.048859296247528,0.0,3.483182645468067],"min":[7.437241823841201,-0.6746019095637794,3.0198368445872014],"type":"VEC3"},{"bufferView":0,"byteOffset":672,"componentType":5126,"count":8,"max":[7.737273236144336,0.0,3.088485344386545],"min":[7.126536141445518,-0.64848683618474,2.6254138664373016],"type":"VEC3"},{"bufferView":0,"byteOffset":768,"componentType":5126,"count":4,"max":[8.020539148611093,-0.5994079450914416,3.483182645468067],"min":[7.126536141445518,-0.6746019095637794,2.6254138664373016],"type":"VEC3"},{"bufferView":1,"byteOffset":0,"componentType":5126,"count":14,"type":"VEC3"},{"bufferView":1,"byteOffset":168,"componentType":5126,"count":8,"type":"VEC3"},{"bufferView":1,"byteOffset":264,"componentType":5126,"count":8,"type":"VEC3"},{"bufferView":1,"byteOffset":360,"componentType":5126,"count":4,"type":"VEC3"},{"bufferView":1,"byteOffset":408,"componentType":5126,"count":14,"type":"VEC3"},{"bufferView":1,"byteOffset":576,"componentType":5126,"count":8,"type":"VEC3"},{"bufferView":1,"byteOffset":672,"componentType":5126,"count":8,"type":"VEC3"},{"bufferView":1,"byteOffset":768,"componentType":5126,"count":4,"type":"VEC3"},{"bufferView":2,"byteOffset":0,"componentType":5123,"count":36,"type":"SCALAR"},{"bufferView":2,"byteOffset":72,"componentType":5123,"count":18,"type":"SCALAR"},{"bufferView":2,"byteOffset":108,"componentType":5123,"count":18,"type":"SCALAR"},{"bufferView":2,"byteOffset":144,"componentType":5123,"count":6,"type":"SCALAR"},{"bufferView":2,"byteOffset":156,"componentType":5123,"count":36,"type":"SCALAR"},{"bufferView":2,"byteOffset":228,"componentType":5123,"count":18,"type":"SCALAR"},{"bufferView":2,"byteOffset":264,"componentType":5123,"count":18,"type":"SCALAR"},{"bufferView":2,"byteOffset":300,"componentType":5123,"count":6,"type":"SCALAR"}],"asset":{"generator":"Open CASCADE Technology 7.7 [dev.opencascade.org]","version":"2.0"},"bufferViews":[{"buffer":0,"byteLength":816,"byteOffset":0,"byteStride":12,"target":34962},{"buffer":0,"byteLength":816,"byteOffset":816,"byteStride":12,"target":34962},{"buffer":0,"byteLength":312,"byteOffset":1632,"target":34963}],"buffers":[{"byteLength":1944,"uri":"BLKT_10.bin"}],"materials":[{"name":"mat_0","pbrMetallicRoughness":{"baseColorFactor":[0.5,0.5,0.5,1.0]},"doubleSided":true}],"meshes":[{"name":"blanket_9_part","primitives":[{"attributes":{"NORMAL":8,"POSITION":0},"indices":16,"material":0,"mode":4},{"attributes":{"NORMAL":9,"POSITION":1},"indices":17,"material":0,"mode":4},{"attributes":{"NORMAL":10,"POSITION":2},"indices":18,"material":0,"mode":4},{"attributes":{"NORMAL":11,"POSITION":3},"indices":19,"material":0,"mode":4},{"attributes":{"NORMAL":12,"POSITION":4},"indices":20,"material":0,"mode":4},{"attributes":{"NORMAL":13,"POSITION":5},"indices":21,"material":0,"mode":4},{"attributes":{"NORMAL":14,"POSITION":6},"indices":22,"material":0,"mode":4},{"attributes":{"NORMAL":15,"POSITION":7},"indices":23,"material":0,"mode":4}]}],"nodes":[{"children":[1],"rotation":[-0.7071067811865475,0.0,0.0,0.7071067811865475],"name":"ecf3193f-78df-11f0-a0ef-d8bbc10393c8"},{"children":[2],"name":"blanket_9"},{"mesh":0,"name":"blanket_9_part"}],"scene":0,"scenes":[{"nodes":[0]}]}