{"accessors":[{"bufferView":0,"byteOffset":0,"componentType":5126,"count":14,"max":[5.183991284644319,0.85470096554495,2.973348291737386],"min":[4.739028235474676,-0.85470096554495,2.5967563437745038],"type":"VEC3"},{"bufferView":0,"byteOffset":168,"componentType":5126,"count":10,"max":[5.556210410567051,0.9160699048143539,3.758499533233456],"min":[4.739028235474676,0.0,2.973348291737386],"type":"VEC3"},{"bufferView":0,"byteOffset":288,"componentType":5126,"count":10,"max":[5.947226621380105,0.9805379786546007,3.37018138833547],"min":[5.113047222426641,0.0,2.5967563437745038],"type":"VEC3"},{"bufferView":0,"byteOffset":408,"componentType":5126,"count":6,"max":[5.865837515518835,0.9805379786546007,3.758499533233456],"min":[4.739028235474676,0.7921796596829887,2.5967563437745038],"type":"VEC3"},{"bufferView":0,"byteOffset":480,"componentType":5126,"count":14,"max":[5.947226621380105,0.9805379786546007,3.758499533233456],"min":[5.480172447650448,-0.9805379786546007,3.37018138833547],"type":"VEC3"},{"bufferView":0,"byteOffset":648,"componentType":5126,"count":10,"max":[5.556210410567051,0.0,3.758499533233456],"min":[4.739028235474676,-0.9160699048143539,2.973348291737386],"type":"VEC3"},{"bufferView":0,"byteOffset":768,"componentType":5126,"count":10,"max":[5.947226621380105,0.0,3.37018138833547],"min":[5.113047222426641,-0.9805379786546007,2.5967563437745038],"type":"VEC3"},{"bufferView":0,"byteOffset":888,"componentType":5126,"count":6,"max":[5.865837515518835,-0.7921796596829887,3.758499533233456],"min":[4.739028235474676,-0.9805379786546007,2.5967563437745038],"type":"VEC3"},{"bufferView":1,"byteOffset":0,"componentType":5126,"count":14,"type":"VEC3"},{"bufferView":1,"byteOffset":168,"componentType":5126,"count":10,"type":"VEC3"},{"bufferView":1,"byteOffset":288,"componentType":5126,"count":10,"type":"VEC3"},{"bufferView":1,"byteOffset":408,"componentType":5126,"count":6,"type":"VEC3"},{"bufferView":1,"byteOffset":480,"componentType":5126,"count":14,"type":"VEC3"},{"bufferView":1,"byteOffset":648,"componentType":5126,"count":10,"type":"VEC3"},{"bufferView":1,"byteOffset":768,"componentType":5126,"count":10,"type":"VEC3"},{"bufferView":1,"byteOffset":888,"componentType":5126,"count":6,"type":"VEC3"},{"bufferView":2,"byteOffset":0,"componentType":5123,"count":36,"type":"SCALAR"},{"bufferView":2,"byteOffset":72,"componentType":5123,"count":24,"type":"SCALAR"},{"bufferView":2,"byteOffset":120,"componentType":5123,"count":24,"type":"SCALAR"},{"bufferView":2,"byteOffset":168,"componentType":5123,"count":12,"type":"SCALAR"},{"bufferView":2,"byteOffset":192,"componentType":5123,"count":36,"type":"SCALAR"},{"bufferView":2,"byteOffset":264,"componentType":5123,"count":24,"type":"SCALAR"},{"bufferView":2,"byteOffset":312,"componentType":5123,"count":24,"type":"SCALAR"},{"bufferView":2,"byteOffset":360,"componentType":5123,"count":12,"type":"SCALAR"}],"asset":{"generator":"Open CASCADE Technology 7.7 [dev.opencascade.org]","version":"2.0"},"bufferViews":[{"buffer":0,"byteLength":960,"byteOffset":0,"byteStride":12,"target":34962},{"buffer":0,"byteLength":960,"byteOffset":960,"byteStride":12,"target":34962},{"buffer":0,"byteLength":384,"byteOffset":1920,"target":34963}],"buffers":[{"byteLength":2304,"uri":"BLKT_5.bin"}],"materials":[{"name":"mat_0","pbrMetallicRoughness":{"baseColorFactor":[0.5,0.5,0.5,1.0]},"doubleSided":true}],"meshes":[{"name":"blanket_4_part","primitives":[{"attributes":{"NORMAL":8,"POSITION":0},"indices":16,"material":0,"mode":4},{"attributes":{"NORMAL":9,"POSITION":1},"indices":17,"material":0,"mode":4},{"attributes":{"NORMAL":10,"POSITION":2},"indices":18,"material":0,"mode":4},{"attributes":{"NORMAL":11,"POSITION":3},"indices":19,"material":0,"mode":4},{"attributes":{"NORMAL":12,"POSITION":4},"indices":20,"material":0,"mode":4},{"attributes":{"NORMAL":13,"POSITION":5},"indices":21,"material":0,"mode":4},{"attributes":{"NORMAL":14,"POSITION":6},"indices":22,"material":0,"mode":4},{"attributes":{"NORMAL":15,"POSITION":7},"indices":23,"material":0,"mode":4}]}],"nodes":[{"children":[1],"rotation":[-0.7071067811865475,0.0,0.0,0.7071067811865475],"name":"806d4ee8-84b4-11f0-b9d8-d8bbc10393c8"},{"children":[2],"name":"blanket_4"},{"mesh":0,"name":"blanket_4_part"}],"scene":0,"scenes":[{"nodes":[0]}]}