{"accessors":[{"bufferView":0,"byteOffset":0,"componentType":5126,"count":14,"max":[9.32206114170572,0.7454241935537447,-0.43409244113275016],"min":[8.804588438680588,-0.7454241935537447,-0.5487806911750994],"type":"VEC3"},{"bufferView":0,"byteOffset":168,"componentType":5126,"count":8,"max":[9.32206114170572,0.7454241935537447,-0.5487806911750994],"min":[9.121351105696297,0.0,-1.2794432943162653],"type":"VEC3"},{"bufferView":0,"byteOffset":264,"componentType":5126,"count":8,"max":[8.832873099588817,0.706307028771407,-0.43409244113275016],"min":[8.63378477773441,0.0,-1.1647680353394428],"type":"VEC3"},{"bufferView":0,"byteOffset":360,"componentType":5126,"count":4,"max":[9.292210000928979,0.7454241935537447,-0.43409244113275016],"min":[8.63378477773441,0.6926051019742188,-1.2794432943162653],"type":"VEC3"},{"bufferView":0,"byteOffset":408,"componentType":5126,"count":14,"max":[9.150653363813906,0.7317178358436227,-1.1647680353394428],"min":[8.63378477773441,-0.7317178358436227,-1.2794432943162653],"type":"VEC3"},{"bufferView":0,"byteOffset":576,"componentType":5126,"count":8,"max":[9.32206114170572,0.0,-0.5487806911750994],"min":[9.121351105696297,-0.7454241935537447,-1.2794432943162653],"type":"VEC3"},{"bufferView":0,"byteOffset":672,"componentType":5126,"count":8,"max":[8.832873099588817,0.0,-0.43409244113275016],"min":[8.63378477773441,-0.706307028771407,-1.1647680353394428],"type":"VEC3"},{"bufferView":0,"byteOffset":768,"componentType":5126,"count":4,"max":[9.292210000928979,-0.6926051019742188,-0.43409244113275016],"min":[8.63378477773441,-0.7454241935537447,-1.2794432943162653],"type":"VEC3"},{"bufferView":1,"byteOffset":0,"componentType":5126,"count":14,"type":"VEC3"},{"bufferView":1,"byteOffset":168,"componentType":5126,"count":8,"type":"VEC3"},{"bufferView":1,"byteOffset":264,"componentType":5126,"count":8,"type":"VEC3"},{"bufferView":1,"byteOffset":360,"componentType":5126,"count":4,"type":"VEC3"},{"bufferView":1,"byteOffset":408,"componentType":5126,"count":14,"type":"VEC3"},{"bufferView":1,"byteOffset":576,"componentType":5126,"count":8,"type":"VEC3"},{"bufferView":1,"byteOffset":672,"componentType":5126,"count":8,"type":"VEC3"},{"bufferView":1,"byteOffset":768,"componentType":5126,"count":4,"type":"VEC3"},{"bufferView":2,"byteOffset":0,"componentType":5123,"count":36,"type":"SCALAR"},{"bufferView":2,"byteOffset":72,"componentType":5123,"count":18,"type":"SCALAR"},{"bufferView":2,"byteOffset":108,"componentType":5123,"count":18,"type":"SCALAR"},{"bufferView":2,"byteOffset":144,"componentType":5123,"count":6,"type":"SCALAR"},{"bufferView":2,"byteOffset":156,"componentType":5123,"count":36,"type":"SCALAR"},{"bufferView":2,"byteOffset":228,"componentType":5123,"count":18,"type":"SCALAR"},{"bufferView":2,"byteOffset":264,"componentType":5123,"count":18,"type":"SCALAR"},{"bufferView":2,"byteOffset":300,"componentType":5123,"count":6,"type":"SCALAR"}],"asset":{"generator":"Open CASCADE Technology 7.7 [dev.opencascade.org]","version":"2.0"},"bufferViews":[{"buffer":0,"byteLength":816,"byteOffset":0,"byteStride":12,"target":34962},{"buffer":0,"byteLength":816,"byteOffset":816,"byteStride":12,"target":34962},{"buffer":0,"byteLength":312,"byteOffset":1632,"target":34963}],"buffers":[{"byteLength":1944,"uri":"BLKT_15.bin"}],"materials":[{"name":"mat_0","pbrMetallicRoughness":{"baseColorFactor":[0.5,0.5,0.5,1.0]},"doubleSided":true}],"meshes":[{"name":"blanket_14_part","primitives":[{"attributes":{"NORMAL":8,"POSITION":0},"indices":16,"material":0,"mode":4},{"attributes":{"NORMAL":9,"POSITION":1},"indices":17,"material":0,"mode":4},{"attributes":{"NORMAL":10,"POSITION":2},"indices":18,"material":0,"mode":4},{"attributes":{"NORMAL":11,"POSITION":3},"indices":19,"material":0,"mode":4},{"attributes":{"NORMAL":12,"POSITION":4},"indices":20,"material":0,"mode":4},{"attributes":{"NORMAL":13,"POSITION":5},"indices":21,"material":0,"mode":4},{"attributes":{"NORMAL":14,"POSITION":6},"indices":22,"material":0,"mode":4},{"attributes":{"NORMAL":15,"POSITION":7},"indices":23,"material":0,"mode":4}]}],"nodes":[{"children":[1],"rotation":[-0.7071067811865475,0.0,0.0,0.7071067811865475],"name":"d2c32fed-86db-11f0-8a68-d8bbc10393c8"},{"children":[2],"name":"blanket_14"},{"mesh":0,"name":"blanket_14_part"}],"scene":0,"scenes":[{"nodes":[0]}]}