{"accessors":[{"bufferView":0,"byteOffset":0,"componentType":5126,"count":14,"max":[8.325760059421143,0.6621375456397399,-2.3491960112944469],"min":[7.9654310308020659,-0.6621375456397399,-2.727334704612935],"type":"VEC3"},{"bufferView":0,"byteOffset":168,"componentType":5126,"count":10,"max":[8.325760059421143,0.6621375456397399,-2.727334704612935],"min":[7.275306395554144,0.0,-3.217589434083804],"type":"VEC3"},{"bufferView":0,"byteOffset":288,"componentType":5126,"count":8,"max":[7.990741142282692,0.6354938996598245,-2.3491960112944469],"min":[7.1498654702663109,0.0,-3.075553308298712],"type":"VEC3"},{"bufferView":0,"byteOffset":384,"componentType":5126,"count":5,"max":[8.299388799044574,0.6621375456397399,-2.3491960112944469],"min":[7.1498654702663109,0.5704268698294338,-3.217589434083804],"type":"VEC3"},{"bufferView":0,"byteOffset":444,"componentType":5126,"count":14,"max":[7.298423639958763,0.5804347328665801,-3.075553308298712],"min":[7.1498654702663109,-0.5804347328665801,-3.217589434083804],"type":"VEC3"},{"bufferView":0,"byteOffset":612,"componentType":5126,"count":10,"max":[8.325760059421143,0.0,-2.727334704612935],"min":[7.275306395554144,-0.6621375456397399,-3.217589434083804],"type":"VEC3"},{"bufferView":0,"byteOffset":732,"componentType":5126,"count":8,"max":[7.990741142282692,0.0,-2.3491960112944469],"min":[7.1498654702663109,-0.6354938996598245,-3.075553308298712],"type":"VEC3"},{"bufferView":0,"byteOffset":828,"componentType":5126,"count":5,"max":[8.299388799044574,-0.5704268698294338,-2.3491960112944469],"min":[7.1498654702663109,-0.6621375456397399,-3.217589434083804],"type":"VEC3"},{"bufferView":1,"byteOffset":0,"componentType":5126,"count":14,"type":"VEC3"},{"bufferView":1,"byteOffset":168,"componentType":5126,"count":10,"type":"VEC3"},{"bufferView":1,"byteOffset":288,"componentType":5126,"count":8,"type":"VEC3"},{"bufferView":1,"byteOffset":384,"componentType":5126,"count":5,"type":"VEC3"},{"bufferView":1,"byteOffset":444,"componentType":5126,"count":14,"type":"VEC3"},{"bufferView":1,"byteOffset":612,"componentType":5126,"count":10,"type":"VEC3"},{"bufferView":1,"byteOffset":732,"componentType":5126,"count":8,"type":"VEC3"},{"bufferView":1,"byteOffset":828,"componentType":5126,"count":5,"type":"VEC3"},{"bufferView":2,"byteOffset":0,"componentType":5123,"count":36,"type":"SCALAR"},{"bufferView":2,"byteOffset":72,"componentType":5123,"count":24,"type":"SCALAR"},{"bufferView":2,"byteOffset":120,"componentType":5123,"count":18,"type":"SCALAR"},{"bufferView":2,"byteOffset":156,"componentType":5123,"count":9,"type":"SCALAR"},{"bufferView":2,"byteOffset":176,"componentType":5123,"count":36,"type":"SCALAR"},{"bufferView":2,"byteOffset":248,"componentType":5123,"count":24,"type":"SCALAR"},{"bufferView":2,"byteOffset":296,"componentType":5123,"count":18,"type":"SCALAR"},{"bufferView":2,"byteOffset":332,"componentType":5123,"count":9,"type":"SCALAR"}],"asset":{"generator":"Open CASCADE Technology 7.7 [dev.opencascade.org]","version":"2.0"},"bufferViews":[{"buffer":0,"byteLength":888,"byteOffset":0,"byteStride":12,"target":34962},{"buffer":0,"byteLength":888,"byteOffset":888,"byteStride":12,"target":34962},{"buffer":0,"byteLength":352,"byteOffset":1776,"target":34963}],"buffers":[{"byteLength":2128,"uri":"BLKT_12.bin"}],"materials":[{"name":"mat_0","pbrMetallicRoughness":{"baseColorFactor":[0.5,0.5,0.5,1.0]},"doubleSided":true}],"meshes":[{"name":"blanket_11_part","primitives":[{"attributes":{"NORMAL":8,"POSITION":0},"indices":16,"material":0,"mode":4},{"attributes":{"NORMAL":9,"POSITION":1},"indices":17,"material":0,"mode":4},{"attributes":{"NORMAL":10,"POSITION":2},"indices":18,"material":0,"mode":4},{"attributes":{"NORMAL":11,"POSITION":3},"indices":19,"material":0,"mode":4},{"attributes":{"NORMAL":12,"POSITION":4},"indices":20,"material":0,"mode":4},{"attributes":{"NORMAL":13,"POSITION":5},"indices":21,"material":0,"mode":4},{"attributes":{"NORMAL":14,"POSITION":6},"indices":22,"material":0,"mode":4},{"attributes":{"NORMAL":15,"POSITION":7},"indices":23,"material":0,"mode":4}]}],"nodes":[{"children":[1],"rotation":[-0.7071067811865475,0.0,0.0,0.7071067811865475],"name":"80778a73-84b4-11f0-812a-d8bbc10393c8"},{"children":[2],"name":"blanket_11"},{"mesh":0,"name":"blanket_11_part"}],"scene":0,"scenes":[{"nodes":[0]}]}