{"accessors":[{"bufferView":0,"byteOffset":0,"componentType":5126,"count":14,"max":[6.0750276769075299,1.005839335521108,3.895242144593224],"min":[5.885861427863953,-1.005839335521108,3.375147091488027],"type":"VEC3"},{"bufferView":0,"byteOffset":168,"componentType":5126,"count":10,"max":[7.152721166004204,1.1842725148609957,3.895242144593224],"min":[5.991180894140232,0.0,3.6581208306830899],"type":"VEC3"},{"bufferView":0,"byteOffset":288,"componentType":5126,"count":10,"max":[7.048165733780755,1.1669613235272485,3.375147091488027],"min":[5.885861427863953,0.0,3.1489249907371406],"type":"VEC3"},{"bufferView":0,"byteOffset":408,"componentType":5126,"count":6,"max":[7.054000190611661,1.1842725148609957,3.895242144593224],"min":[5.885861427863953,0.9881576023455362,3.1489249907371406],"type":"VEC3"},{"bufferView":0,"byteOffset":480,"componentType":5126,"count":14,"max":[7.152721166004204,1.1842725148609957,3.6581208306830899],"min":[6.9508878195690049,-1.1842725148609957,3.1489249907371406],"type":"VEC3"},{"bufferView":0,"byteOffset":648,"componentType":5126,"count":10,"max":[7.152721166004204,0.0,3.895242144593224],"min":[5.991180894140232,-1.1842725148609957,3.6581208306830899],"type":"VEC3"},{"bufferView":0,"byteOffset":768,"componentType":5126,"count":10,"max":[7.048165733780755,0.0,3.375147091488027],"min":[5.885861427863953,-1.1669613235272485,3.1489249907371406],"type":"VEC3"},{"bufferView":0,"byteOffset":888,"componentType":5126,"count":6,"max":[7.054000190611661,-0.9881576023455362,3.895242144593224],"min":[5.885861427863953,-1.1842725148609957,3.1489249907371406],"type":"VEC3"},{"bufferView":1,"byteOffset":0,"componentType":5126,"count":14,"type":"VEC3"},{"bufferView":1,"byteOffset":168,"componentType":5126,"count":10,"type":"VEC3"},{"bufferView":1,"byteOffset":288,"componentType":5126,"count":10,"type":"VEC3"},{"bufferView":1,"byteOffset":408,"componentType":5126,"count":6,"type":"VEC3"},{"bufferView":1,"byteOffset":480,"componentType":5126,"count":14,"type":"VEC3"},{"bufferView":1,"byteOffset":648,"componentType":5126,"count":10,"type":"VEC3"},{"bufferView":1,"byteOffset":768,"componentType":5126,"count":10,"type":"VEC3"},{"bufferView":1,"byteOffset":888,"componentType":5126,"count":6,"type":"VEC3"},{"bufferView":2,"byteOffset":0,"componentType":5123,"count":36,"type":"SCALAR"},{"bufferView":2,"byteOffset":72,"componentType":5123,"count":24,"type":"SCALAR"},{"bufferView":2,"byteOffset":120,"componentType":5123,"count":24,"type":"SCALAR"},{"bufferView":2,"byteOffset":168,"componentType":5123,"count":12,"type":"SCALAR"},{"bufferView":2,"byteOffset":192,"componentType":5123,"count":36,"type":"SCALAR"},{"bufferView":2,"byteOffset":264,"componentType":5123,"count":24,"type":"SCALAR"},{"bufferView":2,"byteOffset":312,"componentType":5123,"count":24,"type":"SCALAR"},{"bufferView":2,"byteOffset":360,"componentType":5123,"count":12,"type":"SCALAR"}],"asset":{"generator":"Open CASCADE Technology 7.7 [dev.opencascade.org]","version":"2.0"},"bufferViews":[{"buffer":0,"byteLength":960,"byteOffset":0,"byteStride":12,"target":34962},{"buffer":0,"byteLength":960,"byteOffset":960,"byteStride":12,"target":34962},{"buffer":0,"byteLength":384,"byteOffset":1920,"target":34963}],"buffers":[{"byteLength":2304,"uri":"BLKT_6.bin"}],"materials":[{"name":"mat_0","pbrMetallicRoughness":{"baseColorFactor":[0.5,0.5,0.5,1.0]},"doubleSided":true}],"meshes":[{"name":"blanket_5_part","primitives":[{"attributes":{"NORMAL":8,"POSITION":0},"indices":16,"material":0,"mode":4},{"attributes":{"NORMAL":9,"POSITION":1},"indices":17,"material":0,"mode":4},{"attributes":{"NORMAL":10,"POSITION":2},"indices":18,"material":0,"mode":4},{"attributes":{"NORMAL":11,"POSITION":3},"indices":19,"material":0,"mode":4},{"attributes":{"NORMAL":12,"POSITION":4},"indices":20,"material":0,"mode":4},{"attributes":{"NORMAL":13,"POSITION":5},"indices":21,"material":0,"mode":4},{"attributes":{"NORMAL":14,"POSITION":6},"indices":22,"material":0,"mode":4},{"attributes":{"NORMAL":15,"POSITION":7},"indices":23,"material":0,"mode":4}]}],"nodes":[{"children":[1],"rotation":[-0.7071067811865475,0.0,0.0,0.7071067811865475],"name":"806ec698-84b4-11f0-bec6-d8bbc10393c8"},{"children":[2],"name":"blanket_5"},{"mesh":0,"name":"blanket_5_part"}],"scene":0,"scenes":[{"nodes":[0]}]}