{"accessors":[{"bufferView":0,"byteOffset":0,"componentType":5126,"count":14,"max":[5.627179866903052,0.9296884040794012,3.728385090449625],"min":[5.421348862481336,-0.9296884040794012,3.2209251144248105],"type":"VEC3"},{"bufferView":0,"byteOffset":168,"componentType":5126,"count":8,"max":[6.181931365543651,1.0213410698250368,3.8999022840126447],"min":[5.421348862481336,0.0,3.728385090449625],"type":"VEC3"},{"bufferView":0,"byteOffset":264,"componentType":5126,"count":8,"max":[6.311594411905375,1.0427632090655313,3.394889729637855],"min":[5.5498497930844359,0.0,3.2209251144248105],"type":"VEC3"},{"bufferView":0,"byteOffset":360,"componentType":5126,"count":4,"max":[6.22485894701354,1.0427632090655313,3.8999022840126447],"min":[5.421348862481336,0.9081624476032499,3.2209251144248105],"type":"VEC3"},{"bufferView":0,"byteOffset":408,"componentType":5126,"count":14,"max":[6.311594411905375,1.0427632090655313,3.8999022840126447],"min":[6.096977761758775,-1.0427632090655313,3.394889729637855],"type":"VEC3"},{"bufferView":0,"byteOffset":576,"componentType":5126,"count":8,"max":[6.181931365543651,0.0,3.8999022840126447],"min":[5.421348862481336,-1.0213410698250368,3.728385090449625],"type":"VEC3"},{"bufferView":0,"byteOffset":672,"componentType":5126,"count":8,"max":[6.311594411905375,0.0,3.394889729637855],"min":[5.5498497930844359,-1.0427632090655313,3.2209251144248105],"type":"VEC3"},{"bufferView":0,"byteOffset":768,"componentType":5126,"count":4,"max":[6.22485894701354,-0.9081624476032499,3.8999022840126447],"min":[5.421348862481336,-1.0427632090655313,3.2209251144248105],"type":"VEC3"},{"bufferView":1,"byteOffset":0,"componentType":5126,"count":14,"type":"VEC3"},{"bufferView":1,"byteOffset":168,"componentType":5126,"count":8,"type":"VEC3"},{"bufferView":1,"byteOffset":264,"componentType":5126,"count":8,"type":"VEC3"},{"bufferView":1,"byteOffset":360,"componentType":5126,"count":4,"type":"VEC3"},{"bufferView":1,"byteOffset":408,"componentType":5126,"count":14,"type":"VEC3"},{"bufferView":1,"byteOffset":576,"componentType":5126,"count":8,"type":"VEC3"},{"bufferView":1,"byteOffset":672,"componentType":5126,"count":8,"type":"VEC3"},{"bufferView":1,"byteOffset":768,"componentType":5126,"count":4,"type":"VEC3"},{"bufferView":2,"byteOffset":0,"componentType":5123,"count":36,"type":"SCALAR"},{"bufferView":2,"byteOffset":72,"componentType":5123,"count":18,"type":"SCALAR"},{"bufferView":2,"byteOffset":108,"componentType":5123,"count":18,"type":"SCALAR"},{"bufferView":2,"byteOffset":144,"componentType":5123,"count":6,"type":"SCALAR"},{"bufferView":2,"byteOffset":156,"componentType":5123,"count":36,"type":"SCALAR"},{"bufferView":2,"byteOffset":228,"componentType":5123,"count":18,"type":"SCALAR"},{"bufferView":2,"byteOffset":264,"componentType":5123,"count":18,"type":"SCALAR"},{"bufferView":2,"byteOffset":300,"componentType":5123,"count":6,"type":"SCALAR"}],"asset":{"generator":"Open CASCADE Technology 7.7 [dev.opencascade.org]","version":"2.0"},"bufferViews":[{"buffer":0,"byteLength":816,"byteOffset":0,"byteStride":12,"target":34962},{"buffer":0,"byteLength":816,"byteOffset":816,"byteStride":12,"target":34962},{"buffer":0,"byteLength":312,"byteOffset":1632,"target":34963}],"buffers":[{"byteLength":1944,"uri":"BLKT_8.bin"}],"materials":[{"name":"mat_0","pbrMetallicRoughness":{"baseColorFactor":[0.5,0.5,0.5,1.0]},"doubleSided":true}],"meshes":[{"name":"blanket_7_part","primitives":[{"attributes":{"NORMAL":8,"POSITION":0},"indices":16,"material":0,"mode":4},{"attributes":{"NORMAL":9,"POSITION":1},"indices":17,"material":0,"mode":4},{"attributes":{"NORMAL":10,"POSITION":2},"indices":18,"material":0,"mode":4},{"attributes":{"NORMAL":11,"POSITION":3},"indices":19,"material":0,"mode":4},{"attributes":{"NORMAL":12,"POSITION":4},"indices":20,"material":0,"mode":4},{"attributes":{"NORMAL":13,"POSITION":5},"indices":21,"material":0,"mode":4},{"attributes":{"NORMAL":14,"POSITION":6},"indices":22,"material":0,"mode":4},{"attributes":{"NORMAL":15,"POSITION":7},"indices":23,"material":0,"mode":4}]}],"nodes":[{"children":[1],"rotation":[-0.7071067811865475,0.0,0.0,0.7071067811865475],"name":"d2b956eb-86db-11f0-85b7-d8bbc10393c8"},{"children":[2],"name":"blanket_7"},{"mesh":0,"name":"blanket_7_part"}],"scene":0,"scenes":[{"nodes":[0]}]}